<?xml version="1.0" encoding="UTF-8" standalone="no"?>
<!DOCTYPE svg PUBLIC "-//W3C//DTD SVG 1.1//EN" "http://www.w3.org/Graphics/SVG/1.1/DTD/svg11.dtd">
<svg class="railroad-diagram" width="1016.5" height="185" viewBox="0 0 1016.5 185" id="showRestViewsStatement" xmlns="http://www.w3.org/2000/svg" xmlns:xlink="http://www.w3.org/1999/xlink"><g transform="translate(.5 .5)"><g><path d="M20 37v20m0 -10h20"></path></g><g><path d="M40 47h0"></path><path d="M976.5 155h0"></path><path d="M40 47h20"></path><g><path d="M60 47h0"></path><path d="M60 47h10"></path><g><path d="M70 47h0"></path><path d="M926.5 47h20"></path><g class="terminal "><path d="M70 47h0"></path><path d="M124 47h0"></path><rect x="70" y="36" width="54" height="22"></rect><text x="97" y="51">SHOW</text></g><path d="M124 47h10"></path><path d="M134 47h10"></path><g class="terminal "><path d="M144 47h0"></path><path d="M198 47h0"></path><rect x="144" y="36" width="54" height="22"></rect><text x="171" y="51">REST</text></g><path d="M198 47h10"></path><g><path d="M208 47h0"></path><path d="M302 47h0"></path><path d="M208 47a10 10 0 0 0 10 -10v-7a10 10 0 0 1 10 -10"></path><g><path d="M228 20h54"></path></g><path d="M282 20a10 10 0 0 1 10 10v7a10 10 0 0 0 10 10"></path><path d="M208 47h20"></path><g class="terminal "><path d="M228 47h0"></path><path d="M282 47h0"></path><rect x="228" y="36" width="54" height="22"></rect><text x="255" y="51">DATA</text></g><path d="M282 47h20"></path></g><g><path d="M302 47h0"></path><path d="M421.5 47h0"></path><path d="M302 47a10 10 0 0 0 10 -10v-7a10 10 0 0 1 10 -10"></path><g><path d="M322 20h79.5"></path></g><path d="M401.5 20a10 10 0 0 1 10 10v7a10 10 0 0 0 10 10"></path><path d="M302 47h20"></path><g class="terminal "><path d="M322 47h0"></path><path d="M401.5 47h0"></path><rect x="322" y="36" width="79.5" height="22"></rect><text x="361.75" y="51">MAPPING</text></g><path d="M401.5 47h20"></path></g><path d="M421.5 47h10"></path><g class="terminal "><path d="M431.5 47h0"></path><path d="M494 47h0"></path><rect x="431.5" y="36" width="62.5" height="22"></rect><text x="462.75" y="51">VIEWS</text></g><path d="M494 47h10"></path><g><path d="M504 47h0"></path><path d="M926.5 47h0"></path><path d="M504 47a10 10 0 0 0 10 -10v-7a10 10 0 0 1 10 -10"></path><g><path d="M524 20h382.5"></path></g><path d="M906.5 20a10 10 0 0 1 10 10v7a10 10 0 0 0 10 10"></path><path d="M504 47h20"></path><g><path d="M524 47h0"></path><path d="M906.5 47h0"></path><path d="M524 47h20"></path><g><path d="M544 47h0"></path><g><path d="M544 47h0"></path><path d="M866.5 47h20"></path><g><path d="M544 47h0"></path><path d="M658 47h0"></path><path d="M544 47h20"></path><g><path d="M564 47h0"></path><g><path d="M564 47h0"></path><path d="M601 47h20"></path><g class="terminal "><path d="M564 47h0"></path><path d="M601 47h0"></path><rect x="564" y="36" width="37" height="22"></rect><text x="582.5" y="51">ON</text></g></g><path d="M621 47h17"></path></g><path d="M638 47h20"></path><path d="M544 47a10 10 0 0 1 10 10v18a10 10 0 0 0 10 10"></path><g><path d="M564 85h0"></path><g><path d="M564 85h0"></path><path d="M618 85h20"></path><g class="terminal "><path d="M564 85h0"></path><path d="M618 85h0"></path><rect x="564" y="74" width="54" height="22"></rect><text x="591" y="89">FROM</text></g></g><path d="M638 85h0"></path></g><path d="M638 85a10 10 0 0 0 10 -10v-18a10 10 0 0 1 10 -10"></path></g><path d="M658 47h10"></path><g class="non-terminal "><path d="M668 47h0"></path><path d="M866.5 47h0"></path><rect x="668" y="36" width="198.5" height="22" rx="10" ry="10"></rect><text x="767.25" y="51">serviceSchemaSelector</text></g></g><path d="M886.5 47h0"></path></g><path d="M886.5 47h20"></path></g><path d="M906.5 47h20"></path></g></g><path d="M946.5 47a10 10 0 0 1 10 10v45a10 10 0 0 1 -10 10h-876.5a10 10 0 0 0 -10 10v23a10 10 0 0 0 10 10"></path><g><path d="M70 155h0"></path><path d="M232 155h714.5"></path><g><path d="M70 155h0"></path><path d="M232 155h0"></path><path d="M70 155a10 10 0 0 0 10 -10v-7a10 10 0 0 1 10 -10"></path><g><path d="M90 128h122"></path></g><path d="M212 128a10 10 0 0 1 10 10v7a10 10 0 0 0 10 10"></path><path d="M70 155h20"></path><g class="non-terminal "><path d="M90 155h0"></path><path d="M212 155h0"></path><rect x="90" y="144" width="122" height="22" rx="10" ry="10"></rect><text x="151" y="159">formatClause</text></g><path d="M212 155h20"></path></g></g><path d="M946.5 155h10"></path><path d="M956.5 155h0"></path></g><path d="M956.5 155h20"></path></g><path d="M 976.5 155 h 20 m 0 -10 v 20"></path></g><defs><style type="text/css"><![CDATA[
svg.railroad-diagram path { stroke-width: 2; stroke: darkgray; fill: rgba(0, 0, 0, 0); }svg.railroad-diagram text { font: bold 12px Hack, "Source Code Pro", monospace; text-anchor: middle; fill: #404040; }svg.railroad-diagram text.comment { font: italic 10px Hack, "Source Code Pro", monospace; fill: #404040; }svg.railroad-diagram g.terminal rect { stroke-width: 2; stroke: #404040; fill: rgba(200, 200, 200, 0.8); }svg.railroad-diagram g.non-terminal rect { stroke-width: 2; stroke: #404040; fill: rgba(255, 255, 255, 1); }svg.railroad-diagram text.diagram-text { font-size: 12px Hack, "Source Code Pro", monospace; fill: red; }svg.railroad-diagram path.diagram-text { stroke-width: 1; stroke: red; fill: red; cursor: help; }
 ]]>
</style></defs></svg>